STARTFONT 2.1
FONT -sni-97480i3-Medium-OT-Normal--16-160-75-75-C-80-iso8859-3
SIZE 16 75 75
FONTBOUNDINGBOX 8 16 0 -3

STARTPROPERTIES 23
FONTNAME_REGISTRY ""
FAMILY_NAME "97480i3"
FOUNDRY "sni"
WEIGHT_NAME "Medium"
SLANT "OT"
SETWIDTH_NAME "Normal"
ADD_STYLE_NAME ""
PIXEL_SIZE 16
POINT_SIZE 160
RESOLUTION_X 75
RESOLUTION_Y 75
SPACING "C"
AVERAGE_WIDTH 80
CHARSET_REGISTRY "iso8859"
CHARSET_ENCODING "3"
FACE_NAME "97801-480 ISO 8859-3"
COPYRIGHT "Copyright (C) Siemens Nixdorf Informationssysteme AG 1992, All Rights Reserved"
X_HEIGHT 9
WEIGHT 10
QUAD_WIDTH 8
DEFAULT_CHAR 0
FONT_DESCENT 3
FONT_ASCENT 13
ENDPROPERTIES

CHARS 256

STARTCHAR C546=0x222
ENCODING 0
SWIDTH 714 0
DWIDTH 8 0
BBX 8 16 0 -3
BITMAP
00
00
3E
41
49
41
3E
00
00
3E
41
49
41
3E
00
00
ENDCHAR

STARTCHAR C001=0x001
ENCODING 1
SWIDTH 714 0
DWIDTH 8 0
BBX 8 16 0 -3
BITMAP
00
01
7F
41
20
10
00
00
3E
41
49
41
3E
00
00
00
ENDCHAR

STARTCHAR C002=0x002
ENCODING 2
SWIDTH 714 0
DWIDTH 8 0
BBX 8 16 0 -3
BITMAP
00
31
49
45
43
21
00
00
3E
41
49
41
3E
00
00
00
ENDCHAR

STARTCHAR C003=0x003
ENCODING 3
SWIDTH 714 0
DWIDTH 8 0
BBX 8 16 0 -3
BITMAP
00
36
49
49
41
22
00
00
3E
41
49
41
3E
00
00
00
ENDCHAR

STARTCHAR C004=0x004
ENCODING 4
SWIDTH 714 0
DWIDTH 8 0
BBX 8 16 0 -3
BITMAP
00
04
7F
44
24
1C
00
00
3E
41
49
41
3E
00
00
00
ENDCHAR

STARTCHAR C005=0x005
ENCODING 5
SWIDTH 714 0
DWIDTH 8 0
BBX 8 16 0 -3
BITMAP
00
46
49
49
49
79
00
00
3E
41
49
41
3E
00
00
00
ENDCHAR

STARTCHAR C006=0x006
ENCODING 6
SWIDTH 714 0
DWIDTH 8 0
BBX 8 16 0 -3
BITMAP
00
46
49
49
29
1E
00
00
3E
41
49
41
3E
00
00
00
ENDCHAR

STARTCHAR C007=0x007
ENCODING 7
SWIDTH 714 0
DWIDTH 8 0
BBX 8 16 0 -3
BITMAP
00
70
48
44
42
41
00
00
3E
41
49
41
3E
00
00
00
ENDCHAR

STARTCHAR C008=0x008
ENCODING 8
SWIDTH 714 0
DWIDTH 8 0
BBX 8 16 0 -3
BITMAP
00
36
49
49
49
36
00
00
3E
41
49
41
3E
00
00
00
ENDCHAR

STARTCHAR C009=0x009
ENCODING 9
SWIDTH 714 0
DWIDTH 8 0
BBX 8 16 0 -3
BITMAP
00
3E
49
49
49
31
00
00
3E
41
49
41
3E
00
00
00
ENDCHAR

STARTCHAR C010=0x00a
ENCODING 10
SWIDTH 714 0
DWIDTH 8 0
BBX 8 16 0 -3
BITMAP
00
3F
44
44
44
3F
00
00
3E
41
49
41
3E
00
00
00
ENDCHAR

STARTCHAR C011=0x00b
ENCODING 11
SWIDTH 714 0
DWIDTH 8 0
BBX 8 16 0 -3
BITMAP
00
36
49
49
49
7F
00
00
3E
41
49
41
3E
00
00
00
ENDCHAR

STARTCHAR C012=0x00c
ENCODING 12
SWIDTH 714 0
DWIDTH 8 0
BBX 8 16 0 -3
BITMAP
00
22
41
41
41
3E
00
00
3E
41
49
41
3E
00
00
00
ENDCHAR

STARTCHAR C013=0x00d
ENCODING 13
SWIDTH 714 0
DWIDTH 8 0
BBX 8 16 0 -3
BITMAP
00
3E
41
41
41
7F
00
00
3E
41
49
41
3E
00
00
00
ENDCHAR

STARTCHAR C014=0x00e
ENCODING 14
SWIDTH 714 0
DWIDTH 8 0
BBX 8 16 0 -3
BITMAP
00
41
49
49
49
7F
00
00
3E
41
49
41
3E
00
00
00
ENDCHAR

STARTCHAR C015=0x00f
ENCODING 15
SWIDTH 714 0
DWIDTH 8 0
BBX 8 16 0 -3
BITMAP
00
40
48
48
48
7F
00
00
3E
41
49
41
3E
00
00
00
ENDCHAR

STARTCHAR C016=0x010
ENCODING 16
SWIDTH 714 0
DWIDTH 8 0
BBX 8 16 0 -3
BITMAP
00
3E
41
49
41
3E
00
00
01
7F
41
20
10
00
00
00
ENDCHAR

STARTCHAR C017=0x011
ENCODING 17
SWIDTH 714 0
DWIDTH 8 0
BBX 8 16 0 -3
BITMAP
00
01
7F
41
20
10
00
00
01
7F
41
20
10
00
00
00
ENDCHAR

STARTCHAR C018=0x012
ENCODING 18
SWIDTH 714 0
DWIDTH 8 0
BBX 8 16 0 -3
BITMAP
00
31
49
45
43
21
00
00
01
7F
41
20
10
00
00
00
ENDCHAR

STARTCHAR C019=0x013
ENCODING 19
SWIDTH 714 0
DWIDTH 8 0
BBX 8 16 0 -3
BITMAP
00
36
49
49
41
22
00
00
01
7F
41
20
10
00
00
00
ENDCHAR

STARTCHAR C020=0x014
ENCODING 20
SWIDTH 714 0
DWIDTH 8 0
BBX 8 16 0 -3
BITMAP
00
04
7F
44
24
1C
00
00
01
7F
41
20
10
00
00
00
ENDCHAR

STARTCHAR C021=0x015
ENCODING 21
SWIDTH 714 0
DWIDTH 8 0
BBX 8 16 0 -3
BITMAP
00
46
49
49
49
79
00
00
01
7F
41
20
10
00
00
00
ENDCHAR

STARTCHAR C022=0x016
ENCODING 22
SWIDTH 714 0
DWIDTH 8 0
BBX 8 16 0 -3
BITMAP
00
46
49
49
29
1E
00
00
01
7F
41
20
10
00
00
00
ENDCHAR

STARTCHAR C023=0x017
ENCODING 23
SWIDTH 714 0
DWIDTH 8 0
BBX 8 16 0 -3
BITMAP
00
70
48
44
42
41
00
00
01
7F
41
20
10
00
00
00
ENDCHAR

STARTCHAR C024=0x018
ENCODING 24
SWIDTH 714 0
DWIDTH 8 0
BBX 8 16 0 -3
BITMAP
00
36
49
49
49
36
00
00
01
7F
41
20
10
00
00
00
ENDCHAR

STARTCHAR C025=0x019
ENCODING 25
SWIDTH 714 0
DWIDTH 8 0
BBX 8 16 0 -3
BITMAP
00
3E
49
49
49
31
00
00
01
7F
41
20
10
00
00
00
ENDCHAR

STARTCHAR C026=0x01a
ENCODING 26
SWIDTH 714 0
DWIDTH 8 0
BBX 8 16 0 -3
BITMAP
00
3F
44
44
44
3F
00
00
01
7F
41
20
10
00
00
00
ENDCHAR

STARTCHAR C027=0x01b
ENCODING 27
SWIDTH 714 0
DWIDTH 8 0
BBX 8 16 0 -3
BITMAP
00
36
49
49
49
7F
00
00
01
7F
41
20
10
00
00
00
ENDCHAR

STARTCHAR C028=0x01c
ENCODING 28
SWIDTH 714 0
DWIDTH 8 0
BBX 8 16 0 -3
BITMAP
00
22
41
41
41
3E
00
00
01
7F
41
20
10
00
00
00
ENDCHAR

STARTCHAR C029=0x01d
ENCODING 29
SWIDTH 714 0
DWIDTH 8 0
BBX 8 16 0 -3
BITMAP
00
3E
41
41
41
7F
00
00
01
7F
41
20
10
00
00
00
ENDCHAR

STARTCHAR C030=0x01e
ENCODING 30
SWIDTH 714 0
DWIDTH 8 0
BBX 8 16 0 -3
BITMAP
00
41
49
49
49
7F
00
00
01
7F
41
20
10
00
00
00
ENDCHAR

STARTCHAR C031=0x01f
ENCODING 31
SWIDTH 714 0
DWIDTH 8 0
BBX 8 16 0 -3
BITMAP
00
40
48
48
48
7F
00
00
01
7F
41
20
10
00
00
00
ENDCHAR

STARTCHAR C032=0x020
ENCODING 32
SWIDTH 714 0
DWIDTH 8 0
BBX 8 16 0 -3
BITMAP
00
00
00
00
00
00
00
00
00
00
00
00
00
00
00
00
ENDCHAR

STARTCHAR C033=0x021
ENCODING 33
SWIDTH 714 0
DWIDTH 8 0
BBX 8 16 0 -3
BITMAP
00
00
10
10
10
10
10
10
00
00
10
00
00
00
00
00
ENDCHAR

STARTCHAR C034=0x022
ENCODING 34
SWIDTH 714 0
DWIDTH 8 0
BBX 8 16 0 -3
BITMAP
00
00
24
24
24
00
00
00
00
00
00
00
00
00
00
00
ENDCHAR

STARTCHAR C035=0x023
ENCODING 35
SWIDTH 714 0
DWIDTH 8 0
BBX 8 16 0 -3
BITMAP
00
00
14
14
7F
14
14
14
7F
14
14
00
00
00
00
00
ENDCHAR

STARTCHAR C237=0x0ed
ENCODING 36
SWIDTH 714 0
DWIDTH 8 0
BBX 8 16 0 -3
BITMAP
00
00
08
3E
49
48
3E
09
49
3E
08
00
00
00
00
00
ENDCHAR

STARTCHAR C037=0x025
ENCODING 37
SWIDTH 714 0
DWIDTH 8 0
BBX 8 16 0 -3
BITMAP
00
00
20
51
22
04
08
10
22
45
02
00
00
00
00
00
ENDCHAR

STARTCHAR C038=0x026
ENCODING 38
SWIDTH 714 0
DWIDTH 8 0
BBX 8 16 0 -3
BITMAP
00
00
38
44
44
38
30
48
45
42
3D
00
00
00
00
00
ENDCHAR

STARTCHAR C039=0x027
ENCODING 39
SWIDTH 714 0
DWIDTH 8 0
BBX 8 16 0 -3
BITMAP
00
00
18
18
18
00
00
00
00
00
00
00
00
00
00
00
ENDCHAR

STARTCHAR C040=0x028
ENCODING 40
SWIDTH 714 0
DWIDTH 8 0
BBX 8 16 0 -3
BITMAP
00
00
04
08
10
10
10
10
10
08
04
00
00
00
00
00
ENDCHAR

STARTCHAR C041=0x029
ENCODING 41
SWIDTH 714 0
DWIDTH 8 0
BBX 8 16 0 -3
BITMAP
00
00
10
08
04
04
04
04
04
08
10
00
00
00
00
00
ENDCHAR

STARTCHAR C042=0x02a
ENCODING 42
SWIDTH 714 0
DWIDTH 8 0
BBX 8 16 0 -3
BITMAP
00
00
00
08
49
2A
1C
2A
49
08
00
00
00
00
00
00
ENDCHAR

STARTCHAR C043=0x02b
ENCODING 43
SWIDTH 714 0
DWIDTH 8 0
BBX 8 16 0 -3
BITMAP
00
00
00
08
08
08
7F
08
08
08
00
00
00
00
00
00
ENDCHAR

STARTCHAR C044=0x02c
ENCODING 44
SWIDTH 714 0
DWIDTH 8 0
BBX 8 16 0 -3
BITMAP
00
00
00
00
00
00
00
00
00
0C
0C
08
10
00
00
00
ENDCHAR

STARTCHAR C045=0x02d
ENCODING 45
SWIDTH 714 0
DWIDTH 8 0
BBX 8 16 0 -3
BITMAP
00
00
00
00
00
00
3E
00
00
00
00
00
00
00
00
00
ENDCHAR

STARTCHAR C046=0x02e
ENCODING 46
SWIDTH 714 0
DWIDTH 8 0
BBX 8 16 0 -3
BITMAP
00
00
00
00
00
00
00
00
00
0C
0C
00
00
00
00
00
ENDCHAR

STARTCHAR C047=0x02f
ENCODING 47
SWIDTH 714 0
DWIDTH 8 0
BBX 8 16 0 -3
BITMAP
00
00
00
01
02
04
08
10
20
40
00
00
00
00
00
00
ENDCHAR

STARTCHAR C048=0x030
ENCODING 48
SWIDTH 714 0
DWIDTH 8 0
BBX 8 16 0 -3
BITMAP
00
00
3E
41
41
41
49
41
41
41
3E
00
00
00
00
00
ENDCHAR

STARTCHAR C049=0x031
ENCODING 49
SWIDTH 714 0
DWIDTH 8 0
BBX 8 16 0 -3
BITMAP
00
00
04
0C
14
24
04
04
04
04
04
00
00
00
00
00
ENDCHAR

STARTCHAR C050=0x032
ENCODING 50
SWIDTH 714 0
DWIDTH 8 0
BBX 8 16 0 -3
BITMAP
00
00
3E
41
01
01
06
18
20
40
7F
00
00
00
00
00
ENDCHAR

STARTCHAR C051=0x033
ENCODING 51
SWIDTH 714 0
DWIDTH 8 0
BBX 8 16 0 -3
BITMAP
00
00
3E
41
01
01
1E
01
01
41
3E
00
00
00
00
00
ENDCHAR

STARTCHAR C052=0x034
ENCODING 52
SWIDTH 714 0
DWIDTH 8 0
BBX 8 16 0 -3
BITMAP
00
00
04
08
10
20
44
44
7F
04
04
00
00
00
00
00
ENDCHAR

STARTCHAR C053=0x035
ENCODING 53
SWIDTH 714 0
DWIDTH 8 0
BBX 8 16 0 -3
BITMAP
00
00
7E
40
40
7C
02
01
01
42
3C
00
00
00
00
00
ENDCHAR

STARTCHAR C054=0x036
ENCODING 54
SWIDTH 714 0
DWIDTH 8 0
BBX 8 16 0 -3
BITMAP
00
00
1E
20
40
40
7E
41
41
41
3E
00
00
00
00
00
ENDCHAR

STARTCHAR C055=0x037
ENCODING 55
SWIDTH 714 0
DWIDTH 8 0
BBX 8 16 0 -3
BITMAP
00
00
7F
01
02
04
08
10
10
10
10
00
00
00
00
00
ENDCHAR

STARTCHAR C056=0x038
ENCODING 56
SWIDTH 714 0
DWIDTH 8 0
BBX 8 16 0 -3
BITMAP
00
00
3E
41
41
41
3E
41
41
41
3E
00
00
00
00
00
ENDCHAR

STARTCHAR C057=0x039
ENCODING 57
SWIDTH 714 0
DWIDTH 8 0
BBX 8 16 0 -3
BITMAP
00
00
3E
41
41
41
3F
01
01
02
3C
00
00
00
00
00
ENDCHAR

STARTCHAR C058=0x03a
ENCODING 58
SWIDTH 714 0
DWIDTH 8 0
BBX 8 16 0 -3
BITMAP
00
00
00
00
00
0C
0C
00
00
0C
0C
00
00
00
00
00
ENDCHAR

STARTCHAR C059=0x03b
ENCODING 59
SWIDTH 714 0
DWIDTH 8 0
BBX 8 16 0 -3
BITMAP
00
00
00
00
00
0C
0C
00
00
0C
0C
08
10
00
00
00
ENDCHAR

STARTCHAR C060=0x03c
ENCODING 60
SWIDTH 714 0
DWIDTH 8 0
BBX 8 16 0 -3
BITMAP
00
00
02
04
08
10
20
10
08
04
02
00
00
00
00
00
ENDCHAR

STARTCHAR C061=0x03d
ENCODING 61
SWIDTH 714 0
DWIDTH 8 0
BBX 8 16 0 -3
BITMAP
00
00
00
00
00
7E
00
00
7E
00
00
00
00
00
00
00
ENDCHAR

STARTCHAR C062=0x03e
ENCODING 62
SWIDTH 714 0
DWIDTH 8 0
BBX 8 16 0 -3
BITMAP
00
00
20
10
08
04
02
04
08
10
20
00
00
00
00
00
ENDCHAR

STARTCHAR C063=0x03f
ENCODING 63
SWIDTH 714 0
DWIDTH 8 0
BBX 8 16 0 -3
BITMAP
00
00
3E
41
01
02
04
08
08
00
08
00
00
00
00
00
ENDCHAR

STARTCHAR C064=0x040
ENCODING 64
SWIDTH 714 0
DWIDTH 8 0
BBX 8 16 0 -3
BITMAP
00
00
3C
42
01
39
45
45
45
45
3A
00
00
00
00
00
ENDCHAR

STARTCHAR C065=0x041
ENCODING 65
SWIDTH 714 0
DWIDTH 8 0
BBX 8 16 0 -3
BITMAP
00
00
08
14
22
41
41
7F
41
41
41
00
00
00
00
00
ENDCHAR

STARTCHAR C066=0x042
ENCODING 66
SWIDTH 714 0
DWIDTH 8 0
BBX 8 16 0 -3
BITMAP
00
00
7E
21
21
21
3E
21
21
21
7E
00
00
00
00
00
ENDCHAR

STARTCHAR C067=0x043
ENCODING 67
SWIDTH 714 0
DWIDTH 8 0
BBX 8 16 0 -3
BITMAP
00
00
1E
21
40
40
40
40
40
21
1E
00
00
00
00
00
ENDCHAR

STARTCHAR C068=0x044
ENCODING 68
SWIDTH 714 0
DWIDTH 8 0
BBX 8 16 0 -3
BITMAP
00
00
7C
22
21
21
21
21
21
22
7C
00
00
00
00
00
ENDCHAR

STARTCHAR C069=0x045
ENCODING 69
SWIDTH 714 0
DWIDTH 8 0
BBX 8 16 0 -3
BITMAP
00
00
7F
40
40
40
7E
40
40
40
7F
00
00
00
00
00
ENDCHAR

STARTCHAR C070=0x046
ENCODING 70
SWIDTH 714 0
DWIDTH 8 0
BBX 8 16 0 -3
BITMAP
00
00
7F
40
40
40
7E
40
40
40
40
00
00
00
00
00
ENDCHAR

STARTCHAR C071=0x047
ENCODING 71
SWIDTH 714 0
DWIDTH 8 0
BBX 8 16 0 -3
BITMAP
00
00
1E
21
40
40
4F
41
41
21
1E
00
00
00
00
00
ENDCHAR

STARTCHAR C072=0x048
ENCODING 72
SWIDTH 714 0
DWIDTH 8 0
BBX 8 16 0 -3
BITMAP
00
00
41
41
41
41
7F
41
41
41
41
00
00
00
00
00
ENDCHAR

STARTCHAR C073=0x049
ENCODING 73
SWIDTH 714 0
DWIDTH 8 0
BBX 8 16 0 -3
BITMAP
00
00
3E
08
08
08
08
08
08
08
3E
00
00
00
00
00
ENDCHAR

STARTCHAR C074=0x04a
ENCODING 74
SWIDTH 714 0
DWIDTH 8 0
BBX 8 16 0 -3
BITMAP
00
00
02
02
02
02
02
02
42
42
3C
00
00
00
00
00
ENDCHAR

STARTCHAR C075=0x04b
ENCODING 75
SWIDTH 714 0
DWIDTH 8 0
BBX 8 16 0 -3
BITMAP
00
00
41
42
44
48
70
48
44
42
41
00
00
00
00
00
ENDCHAR

STARTCHAR C076=0x04c
ENCODING 76
SWIDTH 714 0
DWIDTH 8 0
BBX 8 16 0 -3
BITMAP
00
00
40
40
40
40
40
40
40
40
7F
00
00
00
00
00
ENDCHAR

STARTCHAR C077=0x04d
ENCODING 77
SWIDTH 714 0
DWIDTH 8 0
BBX 8 16 0 -3
BITMAP
00
00
41
63
55
49
49
41
41
41
41
00
00
00
00
00
ENDCHAR

STARTCHAR C078=0x04e
ENCODING 78
SWIDTH 714 0
DWIDTH 8 0
BBX 8 16 0 -3
BITMAP
00
00
41
41
61
51
49
45
43
41
41
00
00
00
00
00
ENDCHAR

STARTCHAR C079=0x04f
ENCODING 79
SWIDTH 714 0
DWIDTH 8 0
BBX 8 16 0 -3
BITMAP
00
00
1C
22
41
41
41
41
41
22
1C
00
00
00
00
00
ENDCHAR

STARTCHAR C080=0x050
ENCODING 80
SWIDTH 714 0
DWIDTH 8 0
BBX 8 16 0 -3
BITMAP
00
00
7E
41
41
41
7E
40
40
40
40
00
00
00
00
00
ENDCHAR

STARTCHAR C081=0x051
ENCODING 81
SWIDTH 714 0
DWIDTH 8 0
BBX 8 16 0 -3
BITMAP
00
00
1C
22
41
41
41
49
45
22
1D
00
00
00
00
00
ENDCHAR

STARTCHAR C082=0x052
ENCODING 82
SWIDTH 714 0
DWIDTH 8 0
BBX 8 16 0 -3
BITMAP
00
00
7E
41
41
41
7E
48
44
42
41
00
00
00
00
00
ENDCHAR

STARTCHAR C083=0x053
ENCODING 83
SWIDTH 714 0
DWIDTH 8 0
BBX 8 16 0 -3
BITMAP
00
00
3E
41
40
40
3E
01
01
41
3E
00
00
00
00
00
ENDCHAR

STARTCHAR C084=0x054
ENCODING 84
SWIDTH 714 0
DWIDTH 8 0
BBX 8 16 0 -3
BITMAP
00
00
7F
08
08
08
08
08
08
08
08
00
00
00
00
00
ENDCHAR

STARTCHAR C085=0x055
ENCODING 85
SWIDTH 714 0
DWIDTH 8 0
BBX 8 16 0 -3
BITMAP
00
00
41
41
41
41
41
41
41
41
3E
00
00
00
00
00
ENDCHAR

STARTCHAR C086=0x056
ENCODING 86
SWIDTH 714 0
DWIDTH 8 0
BBX 8 16 0 -3
BITMAP
00
00
41
41
41
22
22
14
14
08
08
00
00
00
00
00
ENDCHAR

STARTCHAR C087=0x057
ENCODING 87
SWIDTH 714 0
DWIDTH 8 0
BBX 8 16 0 -3
BITMAP
00
00
41
41
41
41
41
49
49
55
22
00
00
00
00
00
ENDCHAR

STARTCHAR C088=0x058
ENCODING 88
SWIDTH 714 0
DWIDTH 8 0
BBX 8 16 0 -3
BITMAP
00
00
41
41
22
14
08
14
22
41
41
00
00
00
00
00
ENDCHAR

STARTCHAR C089=0x059
ENCODING 89
SWIDTH 714 0
DWIDTH 8 0
BBX 8 16 0 -3
BITMAP
00
00
41
41
22
14
08
08
08
08
08
00
00
00
00
00
ENDCHAR

STARTCHAR C090=0x05a
ENCODING 90
SWIDTH 714 0
DWIDTH 8 0
BBX 8 16 0 -3
BITMAP
00
00
7F
01
02
04
08
10
20
40
7F
00
00
00
00
00
ENDCHAR

STARTCHAR C091=0x05b
ENCODING 91
SWIDTH 714 0
DWIDTH 8 0
BBX 8 16 0 -3
BITMAP
00
38
20
20
20
20
20
20
20
20
20
20
38
00
00
00
ENDCHAR

STARTCHAR C092=0x05c
ENCODING 92
SWIDTH 714 0
DWIDTH 8 0
BBX 8 16 0 -3
BITMAP
00
00
00
40
20
10
08
04
02
01
00
00
00
00
00
00
ENDCHAR

STARTCHAR C093=0x05d
ENCODING 93
SWIDTH 714 0
DWIDTH 8 0
BBX 8 16 0 -3
BITMAP
00
38
08
08
08
08
08
08
08
08
08
08
38
00
00
00
ENDCHAR

STARTCHAR C094=0x05e
ENCODING 94
SWIDTH 714 0
DWIDTH 8 0
BBX 8 16 0 -3
BITMAP
00
00
08
14
22
00
00
00
00
00
00
00
00
00
00
00
ENDCHAR

STARTCHAR C095=0x05f
ENCODING 95
SWIDTH 714 0
DWIDTH 8 0
BBX 8 16 0 -3
BITMAP
00
00
00
00
00
00
00
00
00
00
7E
00
00
00
00
00
ENDCHAR

STARTCHAR C096=0x060
ENCODING 96
SWIDTH 714 0
DWIDTH 8 0
BBX 8 16 0 -3
BITMAP
00
00
10
08
04
00
00
00
00
00
00
00
00
00
00
00
ENDCHAR

STARTCHAR C097=0x061
ENCODING 97
SWIDTH 714 0
DWIDTH 8 0
BBX 8 16 0 -3
BITMAP
00
00
00
00
3E
41
01
3F
41
43
3D
00
00
00
00
00
ENDCHAR

STARTCHAR C098=0x062
ENCODING 98
SWIDTH 714 0
DWIDTH 8 0
BBX 8 16 0 -3
BITMAP
00
00
40
40
5C
62
41
41
41
62
5C
00
00
00
00
00
ENDCHAR

STARTCHAR C099=0x063
ENCODING 99
SWIDTH 714 0
DWIDTH 8 0
BBX 8 16 0 -3
BITMAP
00
00
00
00
1E
21
40
40
40
21
1E
00
00
00
00
00
ENDCHAR

STARTCHAR C100=0x064
ENCODING 100
SWIDTH 714 0
DWIDTH 8 0
BBX 8 16 0 -3
BITMAP
00
00
01
01
1D
23
41
41
41
23
1D
00
00
00
00
00
ENDCHAR

STARTCHAR C101=0x065
ENCODING 101
SWIDTH 714 0
DWIDTH 8 0
BBX 8 16 0 -3
BITMAP
00
00
00
00
1C
22
41
7F
40
22
1C
00
00
00
00
00
ENDCHAR

STARTCHAR C102=0x066
ENCODING 102
SWIDTH 714 0
DWIDTH 8 0
BBX 8 16 0 -3
BITMAP
00
00
07
08
7F
08
08
08
08
08
08
00
00
00
00
00
ENDCHAR

STARTCHAR C103=0x067
ENCODING 103
SWIDTH 714 0
DWIDTH 8 0
BBX 8 16 0 -3
BITMAP
00
00
00
00
1D
23
41
41
41
23
1D
01
21
1E
00
00
ENDCHAR

STARTCHAR C104=0x068
ENCODING 104
SWIDTH 714 0
DWIDTH 8 0
BBX 8 16 0 -3
BITMAP
00
00
40
40
5E
61
41
41
41
41
41
00
00
00
00
00
ENDCHAR

STARTCHAR C105=0x069
ENCODING 105
SWIDTH 714 0
DWIDTH 8 0
BBX 8 16 0 -3
BITMAP
00
00
08
00
38
08
08
08
08
08
08
00
00
00
00
00
ENDCHAR

STARTCHAR C106=0x06a
ENCODING 106
SWIDTH 714 0
DWIDTH 8 0
BBX 8 16 0 -3
BITMAP
00
00
08
00
38
08
08
08
08
08
08
08
48
30
00
00
ENDCHAR

STARTCHAR C107=0x06b
ENCODING 107
SWIDTH 714 0
DWIDTH 8 0
BBX 8 16 0 -3
BITMAP
00
00
40
40
42
44
48
70
48
44
42
00
00
00
00
00
ENDCHAR

STARTCHAR C108=0x06c
ENCODING 108
SWIDTH 714 0
DWIDTH 8 0
BBX 8 16 0 -3
BITMAP
00
00
10
10
10
10
10
10
10
10
0E
00
00
00
00
00
ENDCHAR

STARTCHAR C109=0x06d
ENCODING 109
SWIDTH 714 0
DWIDTH 8 0
BBX 8 16 0 -3
BITMAP
00
00
00
00
76
49
49
49
49
49
49
00
00
00
00
00
ENDCHAR

STARTCHAR C110=0x06e
ENCODING 110
SWIDTH 714 0
DWIDTH 8 0
BBX 8 16 0 -3
BITMAP
00
00
00
00
5E
61
41
41
41
41
41
00
00
00
00
00
ENDCHAR

STARTCHAR C111=0x06f
ENCODING 111
SWIDTH 714 0
DWIDTH 8 0
BBX 8 16 0 -3
BITMAP
00
00
00
00
1C
22
41
41
41
22
1C
00
00
00
00
00
ENDCHAR

STARTCHAR C112=0x070
ENCODING 112
SWIDTH 714 0
DWIDTH 8 0
BBX 8 16 0 -3
BITMAP
00
00
00
00
5C
62
41
41
41
62
5C
40
40
40
00
00
ENDCHAR

STARTCHAR C113=0x071
ENCODING 113
SWIDTH 714 0
DWIDTH 8 0
BBX 8 16 0 -3
BITMAP
00
00
00
00
1D
23
41
41
41
23
1D
01
01
01
00
00
ENDCHAR

STARTCHAR C114=0x072
ENCODING 114
SWIDTH 714 0
DWIDTH 8 0
BBX 8 16 0 -3
BITMAP
00
00
00
00
2E
31
20
20
20
20
20
00
00
00
00
00
ENDCHAR

STARTCHAR C115=0x073
ENCODING 115
SWIDTH 714 0
DWIDTH 8 0
BBX 8 16 0 -3
BITMAP
00
00
00
00
3E
41
40
3E
01
41
3E
00
00
00
00
00
ENDCHAR

STARTCHAR C116=0x074
ENCODING 116
SWIDTH 714 0
DWIDTH 8 0
BBX 8 16 0 -3
BITMAP
00
00
08
08
7F
08
08
08
08
08
07
00
00
00
00
00
ENDCHAR

STARTCHAR C117=0x075
ENCODING 117
SWIDTH 714 0
DWIDTH 8 0
BBX 8 16 0 -3
BITMAP
00
00
00
00
41
41
41
41
41
43
3D
00
00
00
00
00
ENDCHAR

STARTCHAR C118=0x076
ENCODING 118
SWIDTH 714 0
DWIDTH 8 0
BBX 8 16 0 -3
BITMAP
00
00
00
00
41
41
41
41
22
14
08
00
00
00
00
00
ENDCHAR

STARTCHAR C119=0x077
ENCODING 119
SWIDTH 714 0
DWIDTH 8 0
BBX 8 16 0 -3
BITMAP
00
00
00
00
41
41
41
49
49
55
22
00
00
00
00
00
ENDCHAR

STARTCHAR C120=0x078
ENCODING 120
SWIDTH 714 0
DWIDTH 8 0
BBX 8 16 0 -3
BITMAP
00
00
00
00
41
22
14
08
14
22
41
00
00
00
00
00
ENDCHAR

STARTCHAR C121=0x079
ENCODING 121
SWIDTH 714 0
DWIDTH 8 0
BBX 8 16 0 -3
BITMAP
00
00
00
00
41
41
22
22
14
14
08
08
10
60
00
00
ENDCHAR

STARTCHAR C122=0x07a
ENCODING 122
SWIDTH 714 0
DWIDTH 8 0
BBX 8 16 0 -3
BITMAP
00
00
00
00
7F
02
04
08
10
20
7F
00
00
00
00
00
ENDCHAR

STARTCHAR C123=0x07b
ENCODING 123
SWIDTH 714 0
DWIDTH 8 0
BBX 8 16 0 -3
BITMAP
00
0C
10
10
10
10
60
10
10
10
10
0C
00
00
00
00
ENDCHAR

STARTCHAR C124=0x07c
ENCODING 124
SWIDTH 714 0
DWIDTH 8 0
BBX 8 16 0 -3
BITMAP
00
00
08
08
08
08
08
08
08
08
08
00
00
00
00
00
ENDCHAR

STARTCHAR C125=0x07d
ENCODING 125
SWIDTH 714 0
DWIDTH 8 0
BBX 8 16 0 -3
BITMAP
00
60
10
10
10
10
0C
10
10
10
10
60
00
00
00
00
ENDCHAR

STARTCHAR C253=0x0fd
ENCODING 126
SWIDTH 714 0
DWIDTH 8 0
BBX 8 16 0 -3
BITMAP
00
32
4C
00
00
00
00
00
00
00
00
00
00
00
00
00
ENDCHAR

STARTCHAR C127=0x07f
ENCODING 127
SWIDTH 714 0
DWIDTH 8 0
BBX 8 16 0 -3
BITMAP
00
00
00
00
49
12
24
49
12
24
49
00
00
00
00
00
ENDCHAR

STARTCHAR C768=0x300
ENCODING 128
SWIDTH 714 0
DWIDTH 8 0
BBX 8 16 0 -3
BITMAP
00
3E
41
49
41
3E
00
00
36
49
49
49
36
00
00
00
ENDCHAR

STARTCHAR C769=0x301
ENCODING 129
SWIDTH 714 0
DWIDTH 8 0
BBX 8 16 0 -3
BITMAP
00
01
7F
41
20
10
00
00
36
49
49
49
36
00
00
00
ENDCHAR

STARTCHAR C770=0x302
ENCODING 130
SWIDTH 714 0
DWIDTH 8 0
BBX 8 16 0 -3
BITMAP
00
31
49
45
43
21
00
00
36
49
49
49
36
00
00
00
ENDCHAR

STARTCHAR C771=0x303
ENCODING 131
SWIDTH 714 0
DWIDTH 8 0
BBX 8 16 0 -3
BITMAP
00
36
49
49
41
22
00
00
36
49
49
49
36
00
00
00
ENDCHAR

STARTCHAR C772=0x304
ENCODING 132
SWIDTH 714 0
DWIDTH 8 0
BBX 8 16 0 -3
BITMAP
00
04
7F
44
24
1C
00
00
36
49
49
49
36
00
00
00
ENDCHAR

STARTCHAR C773=0x305
ENCODING 133
SWIDTH 714 0
DWIDTH 8 0
BBX 8 16 0 -3
BITMAP
00
46
49
49
49
79
00
00
36
49
49
49
36
00
00
00
ENDCHAR

STARTCHAR C774=0x306
ENCODING 134
SWIDTH 714 0
DWIDTH 8 0
BBX 8 16 0 -3
BITMAP
00
46
49
49
29
1E
00
00
36
49
49
49
36
00
00
00
ENDCHAR

STARTCHAR C775=0x307
ENCODING 135
SWIDTH 714 0
DWIDTH 8 0
BBX 8 16 0 -3
BITMAP
00
70
48
44
42
41
00
00
36
49
49
49
36
00
00
00
ENDCHAR

STARTCHAR C776=0x308
ENCODING 136
SWIDTH 714 0
DWIDTH 8 0
BBX 8 16 0 -3
BITMAP
00
36
49
49
49
36
00
00
36
49
49
49
36
00
00
00
ENDCHAR

STARTCHAR C777=0x309
ENCODING 137
SWIDTH 714 0
DWIDTH 8 0
BBX 8 16 0 -3
BITMAP
00
3E
49
49
49
31
00
00
36
49
49
49
36
00
00
00
ENDCHAR

STARTCHAR C778=0x30a
ENCODING 138
SWIDTH 714 0
DWIDTH 8 0
BBX 8 16 0 -3
BITMAP
00
3F
44
44
44
3F
00
00
36
49
49
49
36
00
00
00
ENDCHAR

STARTCHAR C779=0x30b
ENCODING 139
SWIDTH 714 0
DWIDTH 8 0
BBX 8 16 0 -3
BITMAP
00
36
49
49
49
7F
00
00
36
49
49
49
36
00
00
00
ENDCHAR

STARTCHAR C780=0x30c
ENCODING 140
SWIDTH 714 0
DWIDTH 8 0
BBX 8 16 0 -3
BITMAP
00
22
41
41
41
3E
00
00
36
49
49
49
36
00
00
00
ENDCHAR

STARTCHAR C781=0x30d
ENCODING 141
SWIDTH 714 0
DWIDTH 8 0
BBX 8 16 0 -3
BITMAP
00
3E
41
41
41
7F
00
00
36
49
49
49
36
00
00
00
ENDCHAR

STARTCHAR C782=0x30e
ENCODING 142
SWIDTH 714 0
DWIDTH 8 0
BBX 8 16 0 -3
BITMAP
00
41
49
49
49
7F
00
00
36
49
49
49
36
00
00
00
ENDCHAR

STARTCHAR C783=0x30f
ENCODING 143
SWIDTH 714 0
DWIDTH 8 0
BBX 8 16 0 -3
BITMAP
00
40
48
48
48
7F
00
00
36
49
49
49
36
00
00
00
ENDCHAR

STARTCHAR C784=0x310
ENCODING 144
SWIDTH 714 0
DWIDTH 8 0
BBX 8 16 0 -3
BITMAP
00
3E
41
49
41
3E
00
00
3E
49
49
49
32
00
00
00
ENDCHAR

STARTCHAR C785=0x311
ENCODING 145
SWIDTH 714 0
DWIDTH 8 0
BBX 8 16 0 -3
BITMAP
00
01
7F
41
20
10
00
00
3E
49
49
49
32
00
00
00
ENDCHAR

STARTCHAR C786=0x312
ENCODING 146
SWIDTH 714 0
DWIDTH 8 0
BBX 8 16 0 -3
BITMAP
00
31
49
45
43
21
00
00
3E
49
49
49
32
00
00
00
ENDCHAR

STARTCHAR C787=0x313
ENCODING 147
SWIDTH 714 0
DWIDTH 8 0
BBX 8 16 0 -3
BITMAP
00
36
49
49
41
22
00
00
3E
49
49
49
32
00
00
00
ENDCHAR

STARTCHAR C788=0x314
ENCODING 148
SWIDTH 714 0
DWIDTH 8 0
BBX 8 16 0 -3
BITMAP
00
04
7F
44
24
1C
00
00
3E
49
49
49
32
00
00
00
ENDCHAR

STARTCHAR C789=0x315
ENCODING 149
SWIDTH 714 0
DWIDTH 8 0
BBX 8 16 0 -3
BITMAP
00
46
49
49
49
79
00
00
3E
49
49
49
32
00
00
00
ENDCHAR

STARTCHAR C790=0x316
ENCODING 150
SWIDTH 714 0
DWIDTH 8 0
BBX 8 16 0 -3
BITMAP
00
46
49
49
29
1E
00
00
3E
49
49
49
32
00
00
00
ENDCHAR

STARTCHAR C791=0x317
ENCODING 151
SWIDTH 714 0
DWIDTH 8 0
BBX 8 16 0 -3
BITMAP
00
70
48
44
42
41
00
00
3E
49
49
49
32
00
00
00
ENDCHAR

STARTCHAR C792=0x318
ENCODING 152
SWIDTH 714 0
DWIDTH 8 0
BBX 8 16 0 -3
BITMAP
00
36
49
49
49
36
00
00
3E
49
49
49
32
00
00
00
ENDCHAR

STARTCHAR C793=0x319
ENCODING 153
SWIDTH 714 0
DWIDTH 8 0
BBX 8 16 0 -3
BITMAP
00
3E
49
49
49
31
00
00
3E
49
49
49
32
00
00
00
ENDCHAR

STARTCHAR C794=0x31a
ENCODING 154
SWIDTH 714 0
DWIDTH 8 0
BBX 8 16 0 -3
BITMAP
00
3F
44
44
44
3F
00
00
3E
49
49
49
32
00
00
00
ENDCHAR

STARTCHAR C795=0x31b
ENCODING 155
SWIDTH 714 0
DWIDTH 8 0
BBX 8 16 0 -3
BITMAP
00
36
49
49
49
7F
00
00
3E
49
49
49
32
00
00
00
ENDCHAR

STARTCHAR C796=0x31c
ENCODING 156
SWIDTH 714 0
DWIDTH 8 0
BBX 8 16 0 -3
BITMAP
00
22
41
41
41
3E
00
00
3E
49
49
49
32
00
00
00
ENDCHAR

STARTCHAR C797=0x31d
ENCODING 157
SWIDTH 714 0
DWIDTH 8 0
BBX 8 16 0 -3
BITMAP
00
3E
41
41
41
7F
00
00
3E
49
49
49
32
00
00
00
ENDCHAR

STARTCHAR C798=0x31e
ENCODING 158
SWIDTH 714 0
DWIDTH 8 0
BBX 8 16 0 -3
BITMAP
00
41
49
49
49
7F
00
00
3E
49
49
49
32
00
00
00
ENDCHAR

STARTCHAR C799=0x31f
ENCODING 159
SWIDTH 714 0
DWIDTH 8 0
BBX 8 16 0 -3
BITMAP
00
40
48
48
48
7F
00
00
3E
49
49
49
32
00
00
00
ENDCHAR

STARTCHAR C032=0x020
ENCODING 160
SWIDTH 714 0
DWIDTH 8 0
BBX 8 16 0 -3
BITMAP
00
00
00
00
00
00
00
00
00
00
00
00
00
00
00
00
ENDCHAR

STARTCHAR C501=0x1f5
ENCODING 161
SWIDTH 714 0
DWIDTH 8 0
BBX 8 16 0 -3
BITMAP
00
00
22
22
7F
22
3E
22
22
22
22
00
00
00
00
00
ENDCHAR

STARTCHAR C247=0x0f7
ENCODING 162
SWIDTH 714 0
DWIDTH 8 0
BBX 8 16 0 -3
BITMAP
00
22
1C
00
00
00
00
00
00
00
00
00
00
00
00
00
ENDCHAR

STARTCHAR C238=0x0ee
ENCODING 163
SWIDTH 714 0
DWIDTH 8 0
BBX 8 16 0 -3
BITMAP
00
00
07
08
08
1C
08
08
2C
4A
21
00
00
00
00
00
ENDCHAR

STARTCHAR C036=0x024
ENCODING 164
SWIDTH 714 0
DWIDTH 8 0
BBX 8 16 0 -3
BITMAP
00
00
41
22
1C
22
22
22
1C
22
41
00
00
00
00
00
ENDCHAR

STARTCHAR C032=0x020
ENCODING 165
SWIDTH 714 0
DWIDTH 8 0
BBX 8 16 0 -3
BITMAP
00
00
00
00
00
00
00
00
00
00
00
00
00
00
00
00
ENDCHAR

STARTCHAR C577=0x241
ENCODING 166
SWIDTH 714 0
DWIDTH 8 0
BBX 8 16 0 -3
BITMAP
08
14
41
41
41
41
7F
41
41
41
41
00
00
00
00
00
ENDCHAR

STARTCHAR C236=0x0ec
ENCODING 167
SWIDTH 714 0
DWIDTH 8 0
BBX 8 16 0 -3
BITMAP
00
00
3E
41
40
3E
41
3E
01
41
3E
00
00
00
00
00
ENDCHAR

STARTCHAR C249=0x0f9
ENCODING 168
SWIDTH 714 0
DWIDTH 8 0
BBX 8 16 0 -3
BITMAP
00
00
22
00
00
00
00
00
00
00
00
00
00
00
00
00
ENDCHAR

STARTCHAR C227=0x0e3
ENCODING 169
SWIDTH 714 0
DWIDTH 8 0
BBX 8 16 0 -3
BITMAP
08
00
3E
08
08
08
08
08
08
08
3E
00
00
00
00
00
ENDCHAR

STARTCHAR C579=0x243
ENCODING 170
SWIDTH 714 0
DWIDTH 8 0
BBX 8 16 0 -3
BITMAP
00
00
3E
41
40
40
3E
01
01
41
3E
04
22
1C
00
00
ENDCHAR

STARTCHAR C609=0x261
ENCODING 171
SWIDTH 714 0
DWIDTH 8 0
BBX 8 16 0 -3
BITMAP
22
1C
1E
21
40
40
47
41
41
21
1E
00
00
00
00
00
ENDCHAR

STARTCHAR C615=0x267
ENCODING 172
SWIDTH 714 0
DWIDTH 8 0
BBX 8 16 0 -3
BITMAP
10
28
02
02
02
02
02
02
42
42
3C
00
00
00
00
00
ENDCHAR

STARTCHAR C045=0x02d
ENCODING 173
SWIDTH 714 0
DWIDTH 8 0
BBX 8 16 0 -3
BITMAP
00
00
00
00
00
00
3E
00
00
00
00
00
00
00
00
00
ENDCHAR

STARTCHAR C032=0x020
ENCODING 174
SWIDTH 714 0
DWIDTH 8 0
BBX 8 16 0 -3
BITMAP
00
00
00
00
00
00
00
00
00
00
00
00
00
00
00
00
ENDCHAR

STARTCHAR C584=0x248
ENCODING 175
SWIDTH 714 0
DWIDTH 8 0
BBX 8 16 0 -3
BITMAP
08
00
7F
01
02
04
08
10
20
40
7F
00
00
00
00
00
ENDCHAR

STARTCHAR C243=0x0f3
ENCODING 176
SWIDTH 714 0
DWIDTH 8 0
BBX 8 16 0 -3
BITMAP
00
00
1C
22
1C
00
00
00
00
00
00
00
00
00
00
00
ENDCHAR

STARTCHAR C502=0x1f6
ENCODING 177
SWIDTH 714 0
DWIDTH 8 0
BBX 8 16 0 -3
BITMAP
00
00
20
70
20
2C
32
22
22
22
22
00
00
00
00
00
ENDCHAR

STARTCHAR C258=0x102
ENCODING 178
SWIDTH 714 0
DWIDTH 8 0
BBX 8 16 0 -3
BITMAP
00
00
0E
11
02
04
1F
00
00
00
00
00
00
00
00
00
ENDCHAR

STARTCHAR C259=0x103
ENCODING 179
SWIDTH 714 0
DWIDTH 8 0
BBX 8 16 0 -3
BITMAP
00
00
1F
02
06
11
0E
00
00
00
00
00
00
00
00
00
ENDCHAR

STARTCHAR C248=0x0f8
ENCODING 180
SWIDTH 714 0
DWIDTH 8 0
BBX 8 16 0 -3
BITMAP
00
00
04
08
10
00
00
00
00
00
00
00
00
00
00
00
ENDCHAR

STARTCHAR C242=0x0f2
ENCODING 181
SWIDTH 714 0
DWIDTH 8 0
BBX 8 16 0 -3
BITMAP
00
00
00
00
41
41
41
41
41
43
3D
40
40
40
00
00
ENDCHAR

STARTCHAR C585=0x249
ENCODING 182
SWIDTH 714 0
DWIDTH 8 0
BBX 8 16 0 -3
BITMAP
08
14
40
40
40
5E
61
41
41
41
41
00
00
00
00
00
ENDCHAR

STARTCHAR C550=0x226
ENCODING 183
SWIDTH 714 0
DWIDTH 8 0
BBX 8 16 0 -3
BITMAP
00
00
00
00
00
18
18
00
00
00
00
00
00
00
00
00
ENDCHAR

STARTCHAR C551=0x227
ENCODING 184
SWIDTH 714 0
DWIDTH 8 0
BBX 8 16 0 -3
BITMAP
00
00
00
00
00
00
00
00
00
08
04
22
1C
00
00
00
ENDCHAR

STARTCHAR C183=0x0b7
ENCODING 185
SWIDTH 714 0
DWIDTH 8 0
BBX 8 16 0 -3
BITMAP
00
00
00
00
38
08
08
08
08
08
08
00
00
00
00
00
ENDCHAR

STARTCHAR C208=0x0d0
ENCODING 186
SWIDTH 714 0
DWIDTH 8 0
BBX 8 16 0 -3
BITMAP
00
00
00
00
3E
41
40
3E
01
41
3E
04
22
1C
00
00
ENDCHAR

STARTCHAR C182=0x0b6
ENCODING 187
SWIDTH 714 0
DWIDTH 8 0
BBX 8 16 0 -3
BITMAP
00
22
1C
00
1D
23
41
41
41
23
1D
01
21
1E
00
00
ENDCHAR

STARTCHAR C626=0x272
ENCODING 188
SWIDTH 714 0
DWIDTH 8 0
BBX 8 16 0 -3
BITMAP
00
08
14
00
38
08
08
08
08
08
08
08
48
30
00
00
ENDCHAR

STARTCHAR C489=0x1e9
ENCODING 189
SWIDTH 714 0
DWIDTH 8 0
BBX 8 16 0 -3
BITMAP
00
10
30
10
10
7D
02
08
20
4E
11
02
04
1F
00
00
ENDCHAR

STARTCHAR C032=0x020
ENCODING 190
SWIDTH 714 0
DWIDTH 8 0
BBX 8 16 0 -3
BITMAP
00
00
00
00
00
00
00
00
00
00
00
00
00
00
00
00
ENDCHAR

STARTCHAR C222=0x0de
ENCODING 191
SWIDTH 714 0
DWIDTH 8 0
BBX 8 16 0 -3
BITMAP
00
00
08
00
7F
02
04
08
10
20
7F
00
00
00
00
00
ENDCHAR

STARTCHAR C553=0x229
ENCODING 192
SWIDTH 714 0
DWIDTH 8 0
BBX 8 16 0 -3
BITMAP
08
04
08
14
22
41
41
7F
41
41
41
00
00
00
00
00
ENDCHAR

STARTCHAR C554=0x22a
ENCODING 193
SWIDTH 714 0
DWIDTH 8 0
BBX 8 16 0 -3
BITMAP
08
10
08
14
22
41
41
7F
41
41
41
00
00
00
00
00
ENDCHAR

STARTCHAR C555=0x22b
ENCODING 194
SWIDTH 714 0
DWIDTH 8 0
BBX 8 16 0 -3
BITMAP
08
14
00
1C
22
41
41
7F
41
41
41
00
00
00
00
00
ENDCHAR

STARTCHAR C032=0x020
ENCODING 195
SWIDTH 714 0
DWIDTH 8 0
BBX 8 16 0 -3
BITMAP
00
00
00
00
00
00
00
00
00
00
00
00
00
00
00
00
ENDCHAR

STARTCHAR C233=0x0e9
ENCODING 196
SWIDTH 714 0
DWIDTH 8 0
BBX 8 16 0 -3
BITMAP
00
41
08
14
22
41
41
7F
41
41
41
00
00
00
00
00
ENDCHAR

STARTCHAR C591=0x24f
ENCODING 197
SWIDTH 714 0
DWIDTH 8 0
BBX 8 16 0 -3
BITMAP
08
00
1E
21
40
40
40
40
40
21
1E
00
00
00
00
00
ENDCHAR

STARTCHAR C605=0x25d
ENCODING 198
SWIDTH 714 0
DWIDTH 8 0
BBX 8 16 0 -3
BITMAP
08
14
1E
21
40
40
40
40
40
21
1E
00
00
00
00
00
ENDCHAR

STARTCHAR C244=0x0f4
ENCODING 199
SWIDTH 714 0
DWIDTH 8 0
BBX 8 16 0 -3
BITMAP
00
00
1E
21
40
40
40
40
40
21
1E
04
22
1C
00
00
ENDCHAR

STARTCHAR C557=0x22d
ENCODING 200
SWIDTH 714 0
DWIDTH 8 0
BBX 8 16 0 -3
BITMAP
10
08
7F
40
40
40
7E
40
40
40
7F
00
00
00
00
00
ENDCHAR

STARTCHAR C223=0x0df
ENCODING 201
SWIDTH 714 0
DWIDTH 8 0
BBX 8 16 0 -3
BITMAP
08
10
7F
40
40
40
7E
40
40
40
7F
00
00
00
00
00
ENDCHAR

STARTCHAR C558=0x22e
ENCODING 202
SWIDTH 714 0
DWIDTH 8 0
BBX 8 16 0 -3
BITMAP
08
14
7F
40
40
40
7E
40
40
40
7F
00
00
00
00
00
ENDCHAR

STARTCHAR C559=0x22f
ENCODING 203
SWIDTH 714 0
DWIDTH 8 0
BBX 8 16 0 -3
BITMAP
22
00
7F
40
40
40
7E
40
40
40
7F
00
00
00
00
00
ENDCHAR

STARTCHAR C560=0x230
ENCODING 204
SWIDTH 714 0
DWIDTH 8 0
BBX 8 16 0 -3
BITMAP
10
08
3E
08
08
08
08
08
08
08
3E
00
00
00
00
00
ENDCHAR

STARTCHAR C561=0x231
ENCODING 205
SWIDTH 714 0
DWIDTH 8 0
BBX 8 16 0 -3
BITMAP
04
08
3E
08
08
08
08
08
08
08
3E
00
00
00
00
00
ENDCHAR

STARTCHAR C562=0x232
ENCODING 206
SWIDTH 714 0
DWIDTH 8 0
BBX 8 16 0 -3
BITMAP
08
14
3E
08
08
08
08
08
08
08
3E
00
00
00
00
00
ENDCHAR

STARTCHAR C563=0x233
ENCODING 207
SWIDTH 714 0
DWIDTH 8 0
BBX 8 16 0 -3
BITMAP
22
00
3E
08
08
08
08
08
08
08
3E
00
00
00
00
00
ENDCHAR

STARTCHAR C032=0x020
ENCODING 208
SWIDTH 714 0
DWIDTH 8 0
BBX 8 16 0 -3
BITMAP
00
00
00
00
00
00
00
00
00
00
00
00
00
00
00
00
ENDCHAR

STARTCHAR C250=0x0fa
ENCODING 209
SWIDTH 714 0
DWIDTH 8 0
BBX 8 16 0 -3
BITMAP
32
4C
00
41
61
51
49
45
43
41
41
00
00
00
00
00
ENDCHAR

STARTCHAR C564=0x234
ENCODING 210
SWIDTH 714 0
DWIDTH 8 0
BBX 8 16 0 -3
BITMAP
10
08
1C
22
41
41
41
41
41
22
1C
00
00
00
00
00
ENDCHAR

STARTCHAR C565=0x235
ENCODING 211
SWIDTH 714 0
DWIDTH 8 0
BBX 8 16 0 -3
BITMAP
04
08
1C
22
41
41
41
41
41
22
1C
00
00
00
00
00
ENDCHAR

STARTCHAR C566=0x236
ENCODING 212
SWIDTH 714 0
DWIDTH 8 0
BBX 8 16 0 -3
BITMAP
08
14
1C
22
41
41
41
41
41
22
1C
00
00
00
00
00
ENDCHAR

STARTCHAR C606=0x25e
ENCODING 213
SWIDTH 714 0
DWIDTH 8 0
BBX 8 16 0 -3
BITMAP
08
00
1E
21
40
40
47
41
41
21
1E
00
00
00
00
00
ENDCHAR

STARTCHAR C234=0x0ea
ENCODING 214
SWIDTH 714 0
DWIDTH 8 0
BBX 8 16 0 -3
BITMAP
00
41
1C
22
41
41
41
41
41
22
1C
00
00
00
00
00
ENDCHAR

STARTCHAR C486=0x1e6
ENCODING 215
SWIDTH 714 0
DWIDTH 8 0
BBX 8 16 0 -3
BITMAP
00
00
00
00
41
22
08
22
41
00
00
00
00
00
00
00
ENDCHAR

STARTCHAR C576=0x240
ENCODING 216
SWIDTH 714 0
DWIDTH 8 0
BBX 8 16 0 -3
BITMAP
08
14
1E
21
40
40
47
41
41
21
1E
00
00
00
00
00
ENDCHAR

STARTCHAR C568=0x238
ENCODING 217
SWIDTH 714 0
DWIDTH 8 0
BBX 8 16 0 -3
BITMAP
10
08
41
41
41
41
41
41
41
41
3E
00
00
00
00
00
ENDCHAR

STARTCHAR C569=0x239
ENCODING 218
SWIDTH 714 0
DWIDTH 8 0
BBX 8 16 0 -3
BITMAP
04
08
41
41
41
41
41
41
41
41
3E
00
00
00
00
00
ENDCHAR

STARTCHAR C570=0x23a
ENCODING 219
SWIDTH 714 0
DWIDTH 8 0
BBX 8 16 0 -3
BITMAP
08
14
41
41
41
41
41
41
41
41
3E
00
00
00
00
00
ENDCHAR

STARTCHAR C235=0x0eb
ENCODING 220
SWIDTH 714 0
DWIDTH 8 0
BBX 8 16 0 -3
BITMAP
41
00
41
41
41
41
41
41
41
41
3E
00
00
00
00
00
ENDCHAR

STARTCHAR C588=0x24c
ENCODING 221
SWIDTH 714 0
DWIDTH 8 0
BBX 8 16 0 -3
BITMAP
22
1C
41
41
41
41
41
41
41
41
3E
00
00
00
00
00
ENDCHAR

STARTCHAR C589=0x24d
ENCODING 222
SWIDTH 714 0
DWIDTH 8 0
BBX 8 16 0 -3
BITMAP
08
14
3E
41
40
40
3E
01
01
41
3E
00
00
00
00
00
ENDCHAR

STARTCHAR C209=0x0d1
ENCODING 223
SWIDTH 714 0
DWIDTH 8 0
BBX 8 16 0 -3
BITMAP
00
00
3C
42
42
4C
42
42
42
42
4C
00
00
00
00
00
ENDCHAR

STARTCHAR C161=0x0a1
ENCODING 224
SWIDTH 714 0
DWIDTH 8 0
BBX 8 16 0 -3
BITMAP
00
10
08
00
3E
41
01
3F
41
43
3D
00
00
00
00
00
ENDCHAR

STARTCHAR C162=0x0a2
ENCODING 225
SWIDTH 714 0
DWIDTH 8 0
BBX 8 16 0 -3
BITMAP
00
08
10
00
3E
41
01
3F
41
43
3D
00
00
00
00
00
ENDCHAR

STARTCHAR C163=0x0a3
ENCODING 226
SWIDTH 714 0
DWIDTH 8 0
BBX 8 16 0 -3
BITMAP
00
08
14
00
3E
41
01
3F
41
43
3D
00
00
00
00
00
ENDCHAR

STARTCHAR C032=0x020
ENCODING 227
SWIDTH 714 0
DWIDTH 8 0
BBX 8 16 0 -3
BITMAP
00
00
00
00
00
00
00
00
00
00
00
00
00
00
00
00
ENDCHAR

STARTCHAR C164=0x0a4
ENCODING 228
SWIDTH 714 0
DWIDTH 8 0
BBX 8 16 0 -3
BITMAP
00
00
22
00
3E
41
01
3F
41
43
3D
00
00
00
00
00
ENDCHAR

STARTCHAR C620=0x26c
ENCODING 229
SWIDTH 714 0
DWIDTH 8 0
BBX 8 16 0 -3
BITMAP
00
00
08
00
1E
21
40
40
40
21
1E
00
00
00
00
00
ENDCHAR

STARTCHAR C630=0x276
ENCODING 230
SWIDTH 714 0
DWIDTH 8 0
BBX 8 16 0 -3
BITMAP
00
08
14
00
1E
21
40
40
40
21
1E
00
00
00
00
00
ENDCHAR

STARTCHAR C170=0x0aa
ENCODING 231
SWIDTH 714 0
DWIDTH 8 0
BBX 8 16 0 -3
BITMAP
00
00
00
00
1E
21
40
40
40
21
1E
04
22
1C
00
00
ENDCHAR

STARTCHAR C176=0x0b0
ENCODING 232
SWIDTH 714 0
DWIDTH 8 0
BBX 8 16 0 -3
BITMAP
00
10
08
00
1C
22
41
7F
40
22
1C
00
00
00
00
00
ENDCHAR

STARTCHAR C177=0x0b1
ENCODING 233
SWIDTH 714 0
DWIDTH 8 0
BBX 8 16 0 -3
BITMAP
00
08
10
00
1C
22
41
7F
40
22
1C
00
00
00
00
00
ENDCHAR

STARTCHAR C178=0x0b2
ENCODING 234
SWIDTH 714 0
DWIDTH 8 0
BBX 8 16 0 -3
BITMAP
00
08
14
00
1C
22
41
7F
40
22
1C
00
00
00
00
00
ENDCHAR

STARTCHAR C179=0x0b3
ENCODING 235
SWIDTH 714 0
DWIDTH 8 0
BBX 8 16 0 -3
BITMAP
00
00
22
00
1C
22
41
7F
40
22
1C
00
00
00
00
00
ENDCHAR

STARTCHAR C185=0x0b9
ENCODING 236
SWIDTH 714 0
DWIDTH 8 0
BBX 8 16 0 -3
BITMAP
00
10
08
00
38
08
08
08
08
08
08
00
00
00
00
00
ENDCHAR

STARTCHAR C383=0x17f
ENCODING 237
SWIDTH 714 0
DWIDTH 8 0
BBX 8 16 0 -3
BITMAP
00
04
08
00
38
08
08
08
08
08
08
00
00
00
00
00
ENDCHAR

STARTCHAR C184=0x0b8
ENCODING 238
SWIDTH 714 0
DWIDTH 8 0
BBX 8 16 0 -3
BITMAP
00
08
14
00
38
08
08
08
08
08
08
00
00
00
00
00
ENDCHAR

STARTCHAR C187=0x0bb
ENCODING 239
SWIDTH 714 0
DWIDTH 8 0
BBX 8 16 0 -3
BITMAP
00
00
22
00
38
08
08
08
08
08
08
00
00
00
00
00
ENDCHAR

STARTCHAR C032=0x020
ENCODING 240
SWIDTH 714 0
DWIDTH 8 0
BBX 8 16 0 -3
BITMAP
00
00
00
00
00
00
00
00
00
00
00
00
00
00
00
00
ENDCHAR

STARTCHAR C194=0x0c2
ENCODING 241
SWIDTH 714 0
DWIDTH 8 0
BBX 8 16 0 -3
BITMAP
00
32
4C
00
5E
61
41
41
41
41
41
00
00
00
00
00
ENDCHAR

STARTCHAR C195=0x0c3
ENCODING 242
SWIDTH 714 0
DWIDTH 8 0
BBX 8 16 0 -3
BITMAP
00
10
08
00
1C
22
41
41
41
22
1C
00
00
00
00
00
ENDCHAR

STARTCHAR C196=0x0c4
ENCODING 243
SWIDTH 714 0
DWIDTH 8 0
BBX 8 16 0 -3
BITMAP
00
08
10
00
1C
22
41
41
41
22
1C
00
00
00
00
00
ENDCHAR

STARTCHAR C197=0x0c5
ENCODING 244
SWIDTH 714 0
DWIDTH 8 0
BBX 8 16 0 -3
BITMAP
00
08
14
00
1C
22
41
41
41
22
1C
00
00
00
00
00
ENDCHAR

STARTCHAR C631=0x277
ENCODING 245
SWIDTH 714 0
DWIDTH 8 0
BBX 8 16 0 -3
BITMAP
00
00
08
00
1D
23
41
41
41
23
1D
01
21
1E
00
00
ENDCHAR

STARTCHAR C198=0x0c6
ENCODING 246
SWIDTH 714 0
DWIDTH 8 0
BBX 8 16 0 -3
BITMAP
00
00
22
00
1C
22
41
41
41
22
1C
00
00
00
00
00
ENDCHAR

STARTCHAR C487=0x1e7
ENCODING 247
SWIDTH 714 0
DWIDTH 8 0
BBX 8 16 0 -3
BITMAP
00
00
00
00
08
00
3E
00
08
00
00
00
00
00
00
00
ENDCHAR

STARTCHAR C594=0x252
ENCODING 248
SWIDTH 714 0
DWIDTH 8 0
BBX 8 16 0 -3
BITMAP
00
08
14
00
1D
23
41
41
41
23
1D
01
21
1E
00
00
ENDCHAR

STARTCHAR C212=0x0d4
ENCODING 249
SWIDTH 714 0
DWIDTH 8 0
BBX 8 16 0 -3
BITMAP
00
10
08
00
41
41
41
41
41
43
3D
00
00
00
00
00
ENDCHAR

STARTCHAR C213=0x0d5
ENCODING 250
SWIDTH 714 0
DWIDTH 8 0
BBX 8 16 0 -3
BITMAP
00
08
10
00
41
41
41
41
41
43
3D
00
00
00
00
00
ENDCHAR

STARTCHAR C214=0x0d6
ENCODING 251
SWIDTH 714 0
DWIDTH 8 0
BBX 8 16 0 -3
BITMAP
00
08
14
00
41
41
41
41
41
43
3D
00
00
00
00
00
ENDCHAR

STARTCHAR C215=0x0d7
ENCODING 252
SWIDTH 714 0
DWIDTH 8 0
BBX 8 16 0 -3
BITMAP
00
00
22
00
41
41
41
41
41
43
3D
00
00
00
00
00
ENDCHAR

STARTCHAR C618=0x26a
ENCODING 253
SWIDTH 714 0
DWIDTH 8 0
BBX 8 16 0 -3
BITMAP
00
22
1C
00
41
41
41
41
41
43
3D
00
00
00
00
00
ENDCHAR

STARTCHAR C619=0x26b
ENCODING 254
SWIDTH 714 0
DWIDTH 8 0
BBX 8 16 0 -3
BITMAP
00
08
14
00
3E
41
40
3E
01
41
3E
00
00
00
00
00
ENDCHAR

STARTCHAR C492=0x1ec
ENCODING 255
SWIDTH 714 0
DWIDTH 8 0
BBX 8 16 0 -3
BITMAP
00
08
00
00
00
00
00
00
00
00
00
00
00
00
00
00
ENDCHAR
ENDFONT
